<?xml version="1.0" encoding="UTF-8"?>
<svg xmlns="http://www.w3.org/2000/svg" xmlns:xlink="http://www.w3.org/1999/xlink" version="1.1" width="21px" height="21px" viewBox="0 0 21 21"><defs><rect id="r0" width="1" height="1" fill="#000000"/></defs><rect x="0" y="0" width="21" height="21" fill="#fefefe"/><use x="0" y="0" xlink:href="#r0"/><use x="1" y="0" xlink:href="#r0"/><use x="2" y="0" xlink:href="#r0"/><use x="3" y="0" xlink:href="#r0"/><use x="4" y="0" xlink:href="#r0"/><use x="5" y="0" xlink:href="#r0"/><use x="6" y="0" xlink:href="#r0"/><use x="9" y="0" xlink:href="#r0"/><use x="11" y="0" xlink:href="#r0"/><use x="12" y="0" xlink:href="#r0"/><use x="14" y="0" xlink:href="#r0"/><use x="15" y="0" xlink:href="#r0"/><use x="16" y="0" xlink:href="#r0"/><use x="17" y="0" xlink:href="#r0"/><use x="18" y="0" xlink:href="#r0"/><use x="19" y="0" xlink:href="#r0"/><use x="20" y="0" xlink:href="#r0"/><use x="0" y="1" xlink:href="#r0"/><use x="6" y="1" xlink:href="#r0"/><use x="9" y="1" xlink:href="#r0"/><use x="10" y="1" xlink:href="#r0"/><use x="11" y="1" xlink:href="#r0"/><use x="14" y="1" xlink:href="#r0"/><use x="20" y="1" xlink:href="#r0"/><use x="0" y="2" xlink:href="#r0"/><use x="2" y="2" xlink:href="#r0"/><use x="3" y="2" xlink:href="#r0"/><use x="4" y="2" xlink:href="#r0"/><use x="6" y="2" xlink:href="#r0"/><use x="8" y="2" xlink:href="#r0"/><use x="9" y="2" xlink:href="#r0"/><use x="11" y="2" xlink:href="#r0"/><use x="12" y="2" xlink:href="#r0"/><use x="14" y="2" xlink:href="#r0"/><use x="16" y="2" xlink:href="#r0"/><use x="17" y="2" xlink:href="#r0"/><use x="18" y="2" xlink:href="#r0"/><use x="20" y="2" xlink:href="#r0"/><use x="0" y="3" xlink:href="#r0"/><use x="2" y="3" xlink:href="#r0"/><use x="3" y="3" xlink:href="#r0"/><use x="4" y="3" xlink:href="#r0"/><use x="6" y="3" xlink:href="#r0"/><use x="9" y="3" xlink:href="#r0"/><use x="11" y="3" xlink:href="#r0"/><use x="14" y="3" xlink:href="#r0"/><use x="16" y="3" xlink:href="#r0"/><use x="17" y="3" xlink:href="#r0"/><use x="18" y="3" xlink:href="#r0"/><use x="20" y="3" xlink:href="#r0"/><use x="0" y="4" xlink:href="#r0"/><use x="2" y="4" xlink:href="#r0"/><use x="3" y="4" xlink:href="#r0"/><use x="4" y="4" xlink:href="#r0"/><use x="6" y="4" xlink:href="#r0"/><use x="10" y="4" xlink:href="#r0"/><use x="12" y="4" xlink:href="#r0"/><use x="14" y="4" xlink:href="#r0"/><use x="16" y="4" xlink:href="#r0"/><use x="17" y="4" xlink:href="#r0"/><use x="18" y="4" xlink:href="#r0"/><use x="20" y="4" xlink:href="#r0"/><use x="0" y="5" xlink:href="#r0"/><use x="6" y="5" xlink:href="#r0"/><use x="12" y="5" xlink:href="#r0"/><use x="14" y="5" xlink:href="#r0"/><use x="20" y="5" xlink:href="#r0"/><use x="0" y="6" xlink:href="#r0"/><use x="1" y="6" xlink:href="#r0"/><use x="2" y="6" xlink:href="#r0"/><use x="3" y="6" xlink:href="#r0"/><use x="4" y="6" xlink:href="#r0"/><use x="5" y="6" xlink:href="#r0"/><use x="6" y="6" xlink:href="#r0"/><use x="8" y="6" xlink:href="#r0"/><use x="10" y="6" xlink:href="#r0"/><use x="12" y="6" xlink:href="#r0"/><use x="14" y="6" xlink:href="#r0"/><use x="15" y="6" xlink:href="#r0"/><use x="16" y="6" xlink:href="#r0"/><use x="17" y="6" xlink:href="#r0"/><use x="18" y="6" xlink:href="#r0"/><use x="19" y="6" xlink:href="#r0"/><use x="20" y="6" xlink:href="#r0"/><use x="8" y="7" xlink:href="#r0"/><use x="9" y="7" xlink:href="#r0"/><use x="11" y="7" xlink:href="#r0"/><use x="12" y="7" xlink:href="#r0"/><use x="0" y="8" xlink:href="#r0"/><use x="1" y="8" xlink:href="#r0"/><use x="2" y="8" xlink:href="#r0"/><use x="4" y="8" xlink:href="#r0"/><use x="5" y="8" xlink:href="#r0"/><use x="6" y="8" xlink:href="#r0"/><use x="7" y="8" xlink:href="#r0"/><use x="8" y="8" xlink:href="#r0"/><use x="9" y="8" xlink:href="#r0"/><use x="10" y="8" xlink:href="#r0"/><use x="11" y="8" xlink:href="#r0"/><use x="13" y="8" xlink:href="#r0"/><use x="14" y="8" xlink:href="#r0"/><use x="18" y="8" xlink:href="#r0"/><use x="4" y="9" xlink:href="#r0"/><use x="10" y="9" xlink:href="#r0"/><use x="14" y="9" xlink:href="#r0"/><use x="1" y="10" xlink:href="#r0"/><use x="5" y="10" xlink:href="#r0"/><use x="6" y="10" xlink:href="#r0"/><use x="8" y="10" xlink:href="#r0"/><use x="12" y="10" xlink:href="#r0"/><use x="16" y="10" xlink:href="#r0"/><use x="17" y="10" xlink:href="#r0"/><use x="18" y="10" xlink:href="#r0"/><use x="0" y="11" xlink:href="#r0"/><use x="2" y="11" xlink:href="#r0"/><use x="3" y="11" xlink:href="#r0"/><use x="5" y="11" xlink:href="#r0"/><use x="8" y="11" xlink:href="#r0"/><use x="14" y="11" xlink:href="#r0"/><use x="17" y="11" xlink:href="#r0"/><use x="18" y="11" xlink:href="#r0"/><use x="2" y="12" xlink:href="#r0"/><use x="3" y="12" xlink:href="#r0"/><use x="4" y="12" xlink:href="#r0"/><use x="6" y="12" xlink:href="#r0"/><use x="7" y="12" xlink:href="#r0"/><use x="8" y="12" xlink:href="#r0"/><use x="12" y="12" xlink:href="#r0"/><use x="14" y="12" xlink:href="#r0"/><use x="16" y="12" xlink:href="#r0"/><use x="18" y="12" xlink:href="#r0"/><use x="19" y="12" xlink:href="#r0"/><use x="20" y="12" xlink:href="#r0"/><use x="8" y="13" xlink:href="#r0"/><use x="9" y="13" xlink:href="#r0"/><use x="10" y="13" xlink:href="#r0"/><use x="11" y="13" xlink:href="#r0"/><use x="13" y="13" xlink:href="#r0"/><use x="15" y="13" xlink:href="#r0"/><use x="0" y="14" xlink:href="#r0"/><use x="1" y="14" xlink:href="#r0"/><use x="2" y="14" xlink:href="#r0"/><use x="3" y="14" xlink:href="#r0"/><use x="4" y="14" xlink:href="#r0"/><use x="5" y="14" xlink:href="#r0"/><use x="6" y="14" xlink:href="#r0"/><use x="8" y="14" xlink:href="#r0"/><use x="9" y="14" xlink:href="#r0"/><use x="11" y="14" xlink:href="#r0"/><use x="13" y="14" xlink:href="#r0"/><use x="14" y="14" xlink:href="#r0"/><use x="15" y="14" xlink:href="#r0"/><use x="18" y="14" xlink:href="#r0"/><use x="19" y="14" xlink:href="#r0"/><use x="0" y="15" xlink:href="#r0"/><use x="6" y="15" xlink:href="#r0"/><use x="8" y="15" xlink:href="#r0"/><use x="9" y="15" xlink:href="#r0"/><use x="10" y="15" xlink:href="#r0"/><use x="11" y="15" xlink:href="#r0"/><use x="12" y="15" xlink:href="#r0"/><use x="13" y="15" xlink:href="#r0"/><use x="15" y="15" xlink:href="#r0"/><use x="16" y="15" xlink:href="#r0"/><use x="18" y="15" xlink:href="#r0"/><use x="19" y="15" xlink:href="#r0"/><use x="20" y="15" xlink:href="#r0"/><use x="0" y="16" xlink:href="#r0"/><use x="2" y="16" xlink:href="#r0"/><use x="3" y="16" xlink:href="#r0"/><use x="4" y="16" xlink:href="#r0"/><use x="6" y="16" xlink:href="#r0"/><use x="8" y="16" xlink:href="#r0"/><use x="9" y="16" xlink:href="#r0"/><use x="10" y="16" xlink:href="#r0"/><use x="11" y="16" xlink:href="#r0"/><use x="13" y="16" xlink:href="#r0"/><use x="14" y="16" xlink:href="#r0"/><use x="15" y="16" xlink:href="#r0"/><use x="17" y="16" xlink:href="#r0"/><use x="20" y="16" xlink:href="#r0"/><use x="0" y="17" xlink:href="#r0"/><use x="2" y="17" xlink:href="#r0"/><use x="3" y="17" xlink:href="#r0"/><use x="4" y="17" xlink:href="#r0"/><use x="6" y="17" xlink:href="#r0"/><use x="10" y="17" xlink:href="#r0"/><use x="14" y="17" xlink:href="#r0"/><use x="15" y="17" xlink:href="#r0"/><use x="17" y="17" xlink:href="#r0"/><use x="19" y="17" xlink:href="#r0"/><use x="0" y="18" xlink:href="#r0"/><use x="2" y="18" xlink:href="#r0"/><use x="3" y="18" xlink:href="#r0"/><use x="4" y="18" xlink:href="#r0"/><use x="6" y="18" xlink:href="#r0"/><use x="8" y="18" xlink:href="#r0"/><use x="12" y="18" xlink:href="#r0"/><use x="16" y="18" xlink:href="#r0"/><use x="20" y="18" xlink:href="#r0"/><use x="0" y="19" xlink:href="#r0"/><use x="6" y="19" xlink:href="#r0"/><use x="8" y="19" xlink:href="#r0"/><use x="9" y="19" xlink:href="#r0"/><use x="14" y="19" xlink:href="#r0"/><use x="15" y="19" xlink:href="#r0"/><use x="0" y="20" xlink:href="#r0"/><use x="1" y="20" xlink:href="#r0"/><use x="2" y="20" xlink:href="#r0"/><use x="3" y="20" xlink:href="#r0"/><use x="4" y="20" xlink:href="#r0"/><use x="5" y="20" xlink:href="#r0"/><use x="6" y="20" xlink:href="#r0"/><use x="8" y="20" xlink:href="#r0"/><use x="9" y="20" xlink:href="#r0"/><use x="12" y="20" xlink:href="#r0"/><use x="14" y="20" xlink:href="#r0"/><use x="15" y="20" xlink:href="#r0"/><use x="16" y="20" xlink:href="#r0"/><use x="17" y="20" xlink:href="#r0"/><use x="18" y="20" xlink:href="#r0"/><use x="20" y="20" xlink:href="#r0"/></svg>
